<svg xmlns="http://www.w3.org/2000/svg" data-name="Layer 1" viewBox="0 0 1080 1350" x="0px" y="0px"><defs><style>
      .cls-1 {
        stroke-width: 0px;
      }
    </style></defs><path class="cls-1" d="M878.42,947.09c.02-20.85.01-170.69.16-191.54.1-15.19-2.19-29.97-7.16-44.32-12.99-37.58-36.57-65.13-74.51-79.43-44.25-16.68-88.36-33.74-132.59-50.47-3.53-1.33-5.42-3.32-6.42-6.77-3.39-11.81-6.52-23.71-10.5-35.32-2.4-7.01-1.46-12.61,2.08-19.11,18.11-33.25,29.79-68.6,32.53-106.59.19-2.69,1.34-3.26,3.63-3.68,9.76-1.77,15.34-8.54,15.38-18.49.05-13.03.02-26.06.05-39.09,0-1.83.15-3.66.22-5.19,7.85-1.79,15.24-3.22,22.47-5.2,7.85-2.15,11.96-7.38,12.09-15.02.16-9.12.16-18.24-.01-27.36-.13-7.01-5.13-13.01-11.98-14.68-2.48-.6-5.05-.81-7.6-1.2-.13-.52-.28-.92-.32-1.33-1.81-21.15-7.42-41.25-17.11-60.11-22.6-43.98-58.06-72.33-105.45-85.95-2.65-.76-3.9-1.89-4.57-4.77-2.33-9.9-10.89-17.07-20.39-17.15-18.38-.15-36.77-.12-55.16.02-8.57.07-18.02,6.19-19.85,14.29-1.38,6.08-4.61,7.28-9.77,8.96-66.11,21.37-105.12,66.66-117.81,134.81-.7,3.77-1.04,7.61-1.55,11.44-1.23.09-1.95.2-2.66.17-10.1-.36-17.21,7.81-16.69,17.44.42,7.79.03,15.63.06,23.45.03,10.66,3.8,15.48,14.36,18.01,6.88,1.65,13.83,3.02,21.41,4.65,0,14.56.03,28.87,0,43.19-.03,10.58,4.72,16.75,15.1,19.1,2.23.5,3.04,1.35,3.21,3.67,1.67,22.35,5.76,44.29,13.99,65.13,6.25,15.84,14.02,31.09,20.96,46.67.92,2.07,1.73,4.8,1.17,6.83-3.48,12.53-7.73,24.86-10.98,37.45-1.81,6.99-5.04,10.74-12.21,13.39-39.74,14.68-79.25,29.98-118.7,45.42-11.54,4.52-23.62,8.74-33.74,15.62-37.81,25.65-55.82,62.66-57.75,107.72-.74,17.34-.17,34.74-.16,52.11,0,5.35-.15,132.92.18,144.77-2.1,8.63,4.36,17.04,14.39,17.14,13.61.13,613.9-.04,627.51-.1,7.24-.03,14.48.08,21.71-.21,5.49-.21,9.7-2.97,11.94-8.05,1.22-2.77,1.47-5.64.94-8.3.07-.65.1-1.31.1-1.99ZM493.08,165.02c0,3.71,0,7.29,0,10.86-.03,21.43-.09,42.85-.09,64.27,0,8.39,4.49,14.64,11.25,15.94,8.86,1.7,17.08-4.68,17.23-13.77.21-12.74.04-25.48.07-38.22.05-19.25.12-38.51.19-57.76,0-1.81-.56-3.96,2.49-3.95,11.56.03,23.12.01,35.45.01,0,1.96,0,3.62,0,5.27-.03,30.69-.19,61.38.05,92.07.03,3.92,1.37,8.36,3.53,11.62,3.26,4.92,9.7,6.1,15.22,3.99,6.24-2.39,9.42-7.24,9.59-13.68.28-10.85.08-21.71.09-32.57.01-13.17.03-26.35.04-39.52,0-1.43,0-2.86,0-4.94,27.16,8.2,49.22,23.05,67.31,43.98,18.55,21.47,32.32,54.65,31.11,75.07h-292.75c.6-48.65,45.22-106.52,99.21-118.68ZM377.55,317.04c-2.87-.5-2.87-.54-2.85-4.32h331.19c1.34,2.77.56,3.94-2.37,4.4-19.56,3.04-39.05,6.59-58.67,9.21-39.36,5.27-78.94,7.1-118.65,6.4-35.78-.62-71.38-3.49-106.79-8.54-14.01-2-27.91-4.73-41.86-7.15ZM427.58,397.08c-.39-9.69,1.11-23.54,5.01-37.18,1.13-3.96,2.66-5.26,6.85-4.75,39.13,4.82,78.44,7.1,117.83,5.68,27.59-.99,55.11-3.61,82.66-5.65,6.51-.48,6.43-.73,8.42,5.33,7.05,21.48,6.4,43.4,3.27,65.31-5,34.95-17.77,67.01-37.92,95.98-12.64,18.17-28.62,32.48-50.87,37.5-38.38,8.66-71.05-2.55-95.05-36.85-25.31-36.16-39.05-76.54-40.19-125.38ZM556.51,665.4c-4.97,5.6-10.2,10.96-15.13,16.17-6.46-6.19-12.75-12.23-19.21-18.43,6.21-7.4,12.16-14.5,18.36-21.89,5.82,7.02,11.24,13.38,16.38,19.96.65.83.38,3.31-.4,4.19ZM557.85,937.84c-11.27,0-22.59,0-33.92,0,3.57-45.2,7.16-181.26,10.75-208.63.74-5.67,1.47-11.35,2.18-16.88h7.15c3.07,22.47,10.79,178.39,13.84,225.51ZM491.17,653.85c-9.03-16.04-17.65-31.35-26.27-46.68-4.11-7.31-8.4-14.53-12.18-22.01-1.1-2.18-1.32-5.21-.89-7.67.88-4.92,2.48-9.71,3.76-14.46,23.03,16.73,45.91,33.35,69.39,50.4-11.19,13.37-22.33,26.69-33.81,40.41ZM555.87,613.32c23.21-16.95,46.24-33.76,69.65-50.86,1.53,5.57,3.19,11.18,4.54,16.87.29,1.23-.22,2.9-.88,4.09-12.72,22.87-25.51,45.7-38.3,68.53-.13.23-.43.35-1.2.95-11.29-13.21-22.44-26.28-33.81-39.58ZM229.26,937.86c.04-37.44.16-160.98-.04-178.55-.16-13.31,1.63-26.19,5.97-38.79,10.45-30.35,29.55-52.08,60.39-63.12,24.1-8.63,47.83-18.27,71.74-27.44,19.72-7.56,39.47-15.04,59.16-22.67,3.49-1.35,5.73-1.17,7.55,2.62,2.63,5.46,5.9,10.62,8.81,15.95,11.43,20.96,22.67,42.02,34.29,62.87,5.02,9.01,15.46,9.38,21.78,1.21,1.11-1.43,2.15-2.9,3.48-4.69,2.62,2.98,5.12,5.41,7.09,8.22,1.04,1.49,1.77,3.72,1.54,5.47-2.45,18.55-11.8,195.14-15.13,238.9-117.58,0-229.44,0-266.63.02ZM833.92,938.18v-.32c-4.46,0-119.48,0-249.07,0-4.73-42.74-12.67-200.49-18.04-235.52-1.38-8.96,6.7-11.62,12.1-16.67.84,1.13,1.5,1.88,2.02,2.73,7,11.5,19.24,7.85,24.2-1.78,13.05-25.32,27.37-49.98,40.89-75.06,2.25-4.18,4.21-5.02,8.64-3.32,44.83,17.21,89.74,34.22,134.62,51.29,20.13,7.65,35.61,20.83,46.21,39.52,10.18,17.95,15.76,37.16,15.48,58.01-.25,18.53-.22,141.82-.08,181.04-5.66.02-11.32.1-16.98.1Z"/><text x="0" y="1095" fill="#000000" font-size="5px" font-weight="bold" font-family="'Helvetica Neue', Helvetica, Arial-Unicode, Arial, Sans-serif">Created by Teny Septiani</text><text x="0" y="1100" fill="#000000" font-size="5px" font-weight="bold" font-family="'Helvetica Neue', Helvetica, Arial-Unicode, Arial, Sans-serif">from the Noun Project</text></svg>